<svg xmlns="http://www.w3.org/2000/svg" width="1.2rem" height="1.2rem" viewBox="0 0 24 24"><path fill="#fbfbfb" d="M4.577 16V4zm10.385 1H6.154L4.95 18.204q-.379.379-.876.171t-.497-.742V4.616q0-.667.475-1.141T5.192 3h9.77q.666 0 1.14.475t.475 1.14v1.039q0 .212-.144.356t-.357.144t-.356-.144t-.143-.356V4.616q0-.27-.173-.443T14.96 4H5.192q-.269 0-.442.173t-.173.443V16h10.385q.269 0 .442-.173t.173-.442v-2.693q0-.212.144-.356t.357-.144t.356.144t.143.356v2.693q0 .666-.475 1.14t-1.14.475m-7.385-3.5h2q.213 0 .356-.144t.144-.357t-.144-.356t-.356-.143h-2q-.213 0-.356.144t-.144.357t.144.356t.356.143m11.04-2q-1.04 0-1.77-.728t-.731-1.77t.729-1.771t1.77-.731q.487 0 .824.137t.677.461v-4.79q0-.344.232-.576t.575-.232h1.693q.212 0 .356.144t.143.357t-.143.356t-.357.143h-1.5V9q0 1.042-.728 1.77q-.729.73-1.77.73m-11.04-1h5q.213 0 .356-.144t.144-.357t-.144-.356t-.356-.143h-5q-.213 0-.356.144t-.144.357t.144.356t.356.143m0-3h5q.213 0 .356-.144t.144-.357t-.144-.356t-.356-.143h-5q-.213 0-.356.144t-.144.357t.144.356t.356.143"/></svg>